<svg xmlns="http://www.w3.org/2000/svg" width="12" height="14" viewBox="0 0 12 14">
  <path fill="#FFFFFF" d="M0.0349010332,6.80010485 C0.957565394,4.43609132 2.6851994,2.46942577 4.97240466,1.25329716 C7.02093293,0.164075351 9.31986063,-0.218277346 11.5664546,0.118378639 C11.8166431,0.155869816 12.0013208,0.371425336 11.9999929,0.624403811 L11.932985,13.3896895 C11.9309264,13.7818545 11.5047963,14.0244554 11.166518,13.8260483 L0.251540806,7.42419017 C0.0357938914,7.29765017 -0.0560380271,7.03310525 0.0349010332,6.80010485 Z M4.5,8 C5.32842712,8 6,7.32842712 6,6.5 C6,5.67157288 5.32842712,5 4.5,5 C3.67157288,5 3,5.67157288 3,6.5 C3,7.32842712 3.67157288,8 4.5,8 Z M9.5,5 C10.3284271,5 11,4.32842712 11,3.5 C11,2.67157288 10.3284271,2 9.5,2 C8.67157288,2 8,2.67157288 8,3.5 C8,4.32842712 8.67157288,5 9.5,5 Z M9.5,11 C10.3284271,11 11,10.3284271 11,9.5 C11,8.67157288 10.3284271,8 9.5,8 C8.67157288,8 8,8.67157288 8,9.5 C8,10.3284271 8.67157288,11 9.5,11 Z"/>
</svg>
