<svg xmlns="http://www.w3.org/2000/svg" width="16" height="12" viewBox="0 0 16 12">
  <g fill="#FFFFFF" fill-rule="evenodd">
    <polygon fill-rule="nonzero" points=".5 .5 1 0 15.587 10.19 14.413 11.81"/>
    <path d="M1.22839409 2.21450739L2.74749333.315633338C2.89477699.131528764 3.15065642.0753282123 3.36153453.180767266L4.37952428.68976214C4.62651353.813256765 4.7266257 1.11359328 4.60313108 1.36058253 4.57909735 1.40864999 4.54747153 1.45252847 4.50947087 1.49052913L2.43126581 3.56873419C2.23600366 3.76399634 1.91942117 3.76399634 1.72415902 3.56873419 1.70087683 3.545452 1.67995132 3.51992698 1.66168727 3.4925309L1.20280334 2.80420501C1.08202354 2.62303531 1.09237368 2.3845329 1.22839409 2.21450739zM4.49052913 5.50947087L7.59234952 2.40765048C7.78761166 2.21238834 8.10419415 2.21238834 8.2994563 2.40765048 8.31618604 2.42438023 8.33170725 2.44227633 8.34590291 2.46120387L9.2189279 3.6252372C9.37703388 3.83604517 9.34439527 4.13337548 9.14432358 4.3048655L6.25206376 6.78394535C6.09932281 6.91486616 5.88299473 6.94149737 5.70306128 6.85153064L4.62047572 6.31023786C4.37348647 6.18674324 4.2733743 5.88640672 4.39686892 5.63941747 4.42090265 5.59135001 4.45252847 5.54747153 4.49052913 5.50947087zM7.90765048 8.59234952L11.1933648 5.30663523C11.3693107 5.13068925 11.647858 5.11089351 11.8469182 5.26018862L13.0387961 6.15409709C13.25971 6.31978252 13.3044815 6.63318319 13.1387961 6.85409709 13.1246005 6.87302464 13.1090793 6.89092074 13.0923495 6.90765048L9.80663523 10.1933648C9.63068925 10.3693107 9.35214199 10.3891065 9.15308184 10.2398114L7.96120387 9.34590291C7.74028998 9.18021748 7.69551845 8.86681681 7.86120387 8.64590291 7.87539954 8.62697536 7.89092074 8.60907926 7.90765048 8.59234952z"/>
  </g>
</svg>
