<svg xmlns="http://www.w3.org/2000/svg" width="11" height="12" viewBox="0 0 11 12">
  <path fill="#FFFFFF" d="M11,1.44 L11,12.5 C11,12.775 10.775,13 10.5,13 L8.5,13 C8.225,13 8,12.775 8,12.5 L8,8.534 C8,8.534 7,8.081 7,7.034 C7,6.545 7,3.44 7,3.44 C7,3.028 7.281,2.502 7.624,2.274 L10.376,1.106 C10.719,0.878 11,1.028 11,1.44 Z M4,1.5 L4,5 L3,5 L3,1.5 C3,1.5 3.026,1 2.5,1 C1.974,1 2,1.5 2,1.5 L2,5 L1,5 L1,1.5 C1,1.5 0.947,1 0.5,1 C0.053,1 0,1.5 0,1.5 L0,5 C0,5 0,5 0,6 C0,7 1,8.034 1,8.034 L1,12.5 C1,12.775 1.225,13 1.5,13 L3.5,13 C3.775,13 4,12.775 4,12.5 L4,8.034 C4,8.034 5,7 5,6 C5,5 5,5 5,5 L5,1.5 C5,1.5 5,1 4.5,1 C4,1 4,1.5 4,1.5 Z" transform="translate(0 -1)"/>
</svg>
