<?xml version="1.0" standalone="no"?>
<!DOCTYPE svg PUBLIC "-//W3C//DTD SVG 20010904//EN"
 "http://www.w3.org/TR/2001/REC-SVG-20010904/DTD/svg10.dtd">
<svg version="1.0" xmlns="http://www.w3.org/2000/svg"
 width="700.000000pt" height="700.000000pt" viewBox="0 0 700.000000 700.000000"
 preserveAspectRatio="xMidYMid meet">
<metadata>
Created by potrace 1.11, written by Peter Selinger 2001-2013
</metadata>
<g transform="translate(0.000000,700.000000) scale(0.100000,-0.100000)"
fill="#000000" stroke="none">
<path d="M3424 6981 c-50 -23 -90 -73 -101 -126 -5 -22 -8 -296 -8 -610 1
-492 4 -575 17 -605 44 -100 152 -139 251 -91 46 23 96 89 98 131 6 126 3
1144 -4 1175 -23 112 -150 175 -253 126z"/>
<path d="M1796 6549 c-110 -31 -165 -149 -117 -254 15 -35 368 -651 523 -914
27 -46 59 -92 71 -103 117 -100 285 -32 304 124 6 48 -15 94 -152 328 -59 102
-118 203 -130 225 -12 22 -55 96 -95 165 -40 69 -81 141 -92 160 -121 214
-151 251 -209 264 -50 12 -75 13 -103 5z"/>
<path d="M5110 6548 c-67 -19 -96 -51 -177 -198 -11 -19 -69 -120 -130 -225
-183 -316 -263 -455 -321 -555 -42 -74 -55 -106 -57 -145 -11 -161 176 -252
302 -148 20 17 95 144 438 738 181 313 178 307 173 371 -10 114 -120 193 -228
162z"/>
<path d="M555 5326 c-66 -30 -107 -94 -108 -166 -1 -82 37 -134 138 -190 84
-47 442 -254 477 -276 21 -13 40 -24 43 -24 2 0 34 -18 70 -40 36 -22 67 -40
69 -40 3 0 40 -22 83 -48 150 -92 218 -121 274 -117 94 6 160 76 165 173 3 69
-21 119 -75 156 -20 13 -133 80 -251 148 -118 69 -323 187 -455 263 -132 76
-257 147 -277 157 -43 21 -111 23 -153 4z"/>
<path d="M3329 5336 c-2 -2 -31 -7 -64 -11 -188 -21 -388 -81 -569 -171 -50
-25 -100 -50 -111 -57 -171 -102 -257 -169 -396 -308 -183 -184 -315 -391
-414 -649 -35 -92 -80 -257 -89 -330 -3 -25 -9 -56 -12 -70 -3 -14 -7 -110 -9
-215 -4 -326 50 -565 193 -853 235 -473 675 -825 1190 -955 95 -24 117 -29
217 -44 64 -10 396 -10 455 -1 25 4 63 10 85 13 134 18 329 80 496 158 242
112 505 329 675 557 186 251 308 551 351 865 9 73 10 393 1 455 -4 25 -12 72
-17 105 -41 263 -172 559 -352 797 -101 132 -334 351 -441 413 -10 6 -52 31
-95 56 -112 66 -331 162 -402 175 -14 3 -56 14 -95 24 -39 11 -91 22 -116 25
-25 2 -56 8 -70 11 -27 7 -405 16 -411 10z"/>
<path d="M6280 5317 c-25 -13 -112 -63 -195 -111 -82 -48 -159 -92 -170 -98
-11 -7 -85 -50 -165 -96 -80 -47 -154 -90 -165 -96 -187 -103 -299 -175 -320
-206 -50 -74 -41 -171 23 -235 59 -58 140 -67 224 -24 92 47 946 544 979 570
65 51 81 157 35 235 -46 78 -160 106 -246 61z"/>
<path d="M143 3677 c-186 -38 -184 -314 2 -354 22 -5 299 -8 615 -8 621 1 594
-1 658 54 69 60 70 195 1 261 -57 54 -48 53 -666 54 -315 1 -589 -2 -610 -7z"/>
<path d="M5652 3672 c-172 -59 -160 -304 18 -349 43 -11 1165 -10 1200 1 66
21 129 102 130 166 0 74 -42 144 -107 176 -35 17 -79 18 -621 18 -448 1 -591
-2 -620 -12z"/>
<path d="M1526 2568 c-16 -6 -121 -64 -233 -129 -113 -66 -207 -119 -211 -119
-3 0 -13 -6 -21 -14 -9 -7 -47 -31 -86 -51 -38 -21 -74 -41 -80 -45 -5 -4 -86
-52 -180 -105 -205 -118 -227 -133 -250 -181 -53 -113 18 -248 139 -261 60 -7
97 7 252 98 74 43 137 79 139 79 2 0 24 14 48 30 25 17 47 30 50 30 3 0 72 39
154 87 81 47 157 91 168 97 166 91 294 173 317 203 106 139 -42 341 -206 281z"/>
<path d="M5338 2560 c-68 -33 -100 -83 -104 -160 -3 -69 24 -122 81 -158 22
-14 184 -109 360 -210 176 -102 363 -210 415 -241 235 -138 255 -145 341 -121
60 17 116 85 121 147 4 51 -12 107 -40 140 -22 26 -350 224 -677 408 -22 12
-76 44 -120 70 -239 142 -300 163 -377 125z"/>
<path d="M2317 1751 c-47 -22 -77 -60 -137 -166 -97 -174 -300 -526 -321 -557
-11 -15 -19 -29 -19 -31 0 -2 -39 -71 -87 -153 -84 -145 -87 -151 -87 -214 -1
-77 25 -126 87 -161 74 -41 189 -18 235 48 18 26 104 174 160 273 13 25 39 70
58 100 106 179 331 573 351 617 46 101 6 205 -96 249 -42 18 -101 16 -144 -5z"/>
<path d="M4544 1757 c-48 -19 -83 -52 -104 -100 -33 -73 -22 -115 66 -268 86
-151 211 -366 349 -604 51 -88 103 -178 115 -200 56 -101 105 -137 189 -138
110 -1 191 91 178 202 -6 47 -32 95 -500 904 -47 81 -96 157 -109 167 -54 47
-122 60 -184 37z"/>
<path d="M3415 1450 c-44 -22 -79 -67 -92 -120 -10 -38 -9 -1160 1 -1199 16
-66 103 -131 176 -131 81 0 160 65 177 145 5 22 8 296 8 610 -2 616 -1 607
-55 664 -51 52 -145 66 -215 31z"/>
</g>
</svg>
