<svg xmlns="http://www.w3.org/2000/svg" width="12" height="12" viewBox="0 0 12 12">
  <path fill="#000000" d="M8.61283506,10.1378379 C8.62839141,10.4121953 8.48202031,10.7961543 8.28685884,10.9913158 L8.0011877,11.2769869 C7.80673333,11.4714413 7.60803633,11.4085088 7.55853885,11.138394 L6.78567114,6.8356492 L4.92668741,8.69463293 C4.9464864,9.30557319 4.94860772,10.0869262 4.8319351,10.2035988 L4.37867966,10.6568542 C4.18422529,10.8513086 3.95441559,10.7968614 3.86744145,10.535939 L3.31801948,8.18198052 L0.96406101,7.63255855 C0.703138608,7.54558441 0.648691386,7.31577471 0.843145751,7.12132034 L1.29569409,6.668772 C1.41236671,6.55209938 2.1937197,6.55422071 2.80465996,6.57401969 L4.6643508,4.71432886 L0.361606033,3.94146115 C0.0914912421,3.89196367 0.0285587386,3.69326667 0.223013103,3.4988123 L0.508684243,3.21314116 C0.703845715,3.01797969 1.08709759,2.87090148 1.36216213,2.88716494 L6.22139993,3.15727973 L8.62132034,0.757359313 C9.20680476,0.171874898 10.1564492,0.171167791 10.7426407,0.757359313 C11.3288322,1.34355083 11.3281251,2.29319524 10.7426407,2.87867966 L8.34272027,5.27860007 L8.61283506,10.1378379 Z"/>
</svg>
