<svg xmlns="http://www.w3.org/2000/svg" width="12" height="12" viewBox="0 0 12 12">
  <path fill="#000000" d="M11.6222609,4.5805 C11.316,4.1955 10.8427826,4 10.2313043,4 L8.86956522,4 L8.86956522,3.844 C8.86956522,3.844 9.48521739,3.584 9.75495652,3.2595 C9.90991304,3.056 10.0267826,2.9065 9.96991304,2.219 C9.91304348,1.5315 8.78765217,0.922 8.05878261,1.2875 C7.79321739,0.8675 7.45826087,0.6235 6.9693913,0.525 C6.86608696,0.504 6.75913043,0.494 6.65165217,0.494 C6.29113043,0.494 5.95095652,0.609 5.67286957,0.7745 C5.30817391,0.3795 4.71443478,0.045 3.86713043,0.045 C3.3506087,0.045 2.91026087,0.26 2.62695652,0.6505 C2.49391304,0.8335 2.40469565,1.0405 2.34886957,1.2505 C2.12556522,1.181 1.88086957,1.1445 1.62104348,1.1445 C0.726782609,1.1445 1.0658141e-14,1.9005 1.0658141e-14,2.829 C1.0658141e-14,3.3475 0.52173913,3.7195 0.52173913,4.415 L0.52173913,6.5 L0.52173913,11 C0.52173913,11.552 0.959478261,12 1.53547826,12 L7.79634783,12 C8.37286957,12 8.86956522,11.552 8.86956522,11 L8.86956522,10 L8.86956522,9.9415 C9.91304348,9.7745 11.0405217,9.2265 11.5533913,7.4375 C11.937913,6.0955 12.0798261,5.156 11.6222609,4.5805 Z M3.13043478,10.249 C3.13043478,10.524 2.89565217,10.749 2.60869565,10.749 C2.32173913,10.749 2.08695652,10.524 2.08695652,10.249 C2.08695652,10.249 2.08695652,7.781 2.08695652,7.5935 C2.77147826,7.5935 3.13043478,7.0465 3.13043478,6.6015 C3.13043478,6.922 3.13043478,10.249 3.13043478,10.249 Z M5.2173913,10.249 C5.2173913,10.524 4.9826087,10.749 4.69565217,10.749 C4.40869565,10.749 4.17391304,10.524 4.17391304,10.249 L4.17391304,5.7725 C4.17391304,5.493 4.19843478,5.05 4.36956522,4.7735 C4.5,4.5625 5.2173913,4.469 5.2173913,4.469 L5.2173913,10.249 Z M7.30434783,9.5 L7.30434783,10.249 C7.30434783,10.524 7.06956522,10.749 6.7826087,10.749 C6.49565217,10.749 6.26086957,10.524 6.26086957,10.249 L6.26086957,4.3595 C6.76695652,4.301 7.30434783,4.2265 7.30434783,4.2265 L7.30434783,9.5 Z M4.50834783,3.633 C3.84156522,3.727 3.57913043,4.2735 3.54626087,4.766 C3.52643478,5.0665 3.42365217,5.43 3.15652174,5.43 C2.86017391,5.43 2.72295652,5.1995 2.66034783,5.008 C2.616,4.873 2.60869565,5.0135 2.60869565,5.0135 L2.60869565,6.445 C2.60869565,6.6835 2.43652174,6.945 2.08643478,6.945 C1.73634783,6.945 1.56521739,6.6785 1.56521739,6.437 L1.56521739,4.593 C1.56521739,3.4805 0.448173913,2.546 1.54904348,2.054 C2.18504348,1.804 2.89408696,2.515 2.89408696,2.515 C2.89408696,2.515 2.82365217,1.0245 3.95373913,0.976 C5.05408696,0.929 5.3666087,1.697 5.4866087,2.2495 C5.74747826,1.6035 6.23686957,1.2805 6.7586087,1.3745 C7.272,1.4915 7.53286957,2.2185 7.53286957,2.2185 C7.89182609,1.8435 9.09808696,1.7915 9.09808696,2.539 C9.09756522,3.7005 4.93826087,3.572 4.50834783,3.633 Z M10.6236522,7.25 C10.2923478,8.4065 9.39130435,8.7645 8.86956522,8.925 L8.86956522,8.5 L8.86956522,5 L10.3737391,5 C10.7363478,5 10.8709565,5.1065 10.9346087,5.187 C11.0446957,5.325 11.0154783,5.8815 10.6236522,7.25 Z"/>
</svg>
