<svg xmlns="http://www.w3.org/2000/svg" width="9" height="13" viewBox="0 0 9 13">
  <path fill="#000000" d="M9.972,4.585 C9.972,5.466 9.789,6.423 9.245,7.286 C7.607,9.83 5.534,12.164 5.534,12.164 C5.534,12.164 3.15,9.911 1.627,7.24 C1.245,6.406 0.996,5.524 0.996,4.64 C0.996,2.157 3.005,2.66453526e-15 5.484,2.66453526e-15 C7.963,2.66453526e-15 9.972,2.102 9.972,4.585 Z M8.208,4.404 C8.208,2.92 7.006,1.721 5.525,1.721 C4.044,1.721 2.842,2.921 2.842,4.404 C2.842,5.887 4.044,7.086 5.525,7.086 C7.006,7.086 8.208,5.886 8.208,4.404 Z" transform="translate(-1)"/>
</svg>
