<svg xmlns="http://www.w3.org/2000/svg" width="11" height="12" viewBox="0 0 11 12">
  <path fill="#000000" d="M10.5,11 L10,11 L10,0.5 C10,0.225 9.775,0 9.5,0 L1.5,0 C1.225,0 1,0.225 1,0.5 L1,11 L0.5,11 C0.225,11 0,11.225 0,11.5 L0,12 L4,12 L4,10.5 C4,10.225 4.225,10 4.5,10 L6.5,10 C6.775,10 7,10.225 7,10.5 L7,12 L11,12 L11,11.5 C11,11.225 10.775,11 10.5,11 Z M3,9 L2,9 L2,8 L3,8 L3,9 Z M3,7 L2,7 L2,6 L3,6 L3,7 Z M3,5 L2,5 L2,4 L3,4 L3,5 Z M3,3 L2,3 L2,2 L3,2 L3,3 Z M5,7 L4,7 L4,6 L5,6 L5,7 Z M5,5 L4,5 L4,4 L5,4 L5,5 Z M5,3 L4,3 L4,2 L5,2 L5,3 Z M7,7 L6,7 L6,6 L7,6 L7,7 Z M7,5 L6,5 L6,4 L7,4 L7,5 Z M7,3 L6,3 L6,2 L7,2 L7,3 Z M9,9 L8,9 L8,8 L9,8 L9,9 Z M9,7 L8,7 L8,6 L9,6 L9,7 Z M9,5 L8,5 L8,4 L9,4 L9,5 Z M9,3 L8,3 L8,2 L9,2 L9,3 Z"/>
</svg>
