<svg xmlns="http://www.w3.org/2000/svg" width="13" height="12" viewBox="0 0 13 12">
  <path fill="#000000" d="M8.56888062,11.4782609 L8.56888062,8.07913043 C8.77907022,8.24556522 9.03916095,8.34782609 9.32495832,8.34782609 C10.0210539,8.34782609 10.5850878,7.764 10.5850878,7.04347826 C10.5850878,6.95321739 10.5760149,6.86504348 10.5593812,6.78 C10.5679501,6.78 10.5760149,6.7826087 10.5850878,6.7826087 C11.4203017,6.7826087 12.0972432,6.08191304 12.0972432,5.2173913 C12.0972432,4.66069565 11.8144702,4.17495652 11.3915707,3.8973913 C11.5160715,3.66991304 11.5931914,3.4106087 11.5931914,3.13043478 C11.5931914,2.26591304 10.9162499,1.56521739 10.081036,1.56521739 C9.88848823,1.56521739 9.70602148,1.60591304 9.53666008,1.67373913 C9.35167306,0.719478261 8.53762941,0 7.56077702,0 C6.44732659,0 5.54456981,0.934434783 5.54456981,2.08695652 C4.70935598,2.08695652 4.03241441,2.78765217 4.03241441,3.65217391 C4.03241441,3.93130435 4.10852623,4.18904348 4.23252297,4.416 C3.81970455,4.68156522 3.53793959,5.148 3.52130588,5.68852174 C3.49459114,6.54782609 4.14582606,7.26678261 4.97599938,7.29443478 C5.00624249,7.29547826 5.03446939,7.28921739 5.0647125,7.28817391 C5.17509984,7.89130435 5.68570432,8.34782609 6.30064751,8.34782609 C6.58543678,8.34782609 6.84603156,8.24713043 7.05672521,8.08226087 L7.05672521,11.4782609 L6.80469931,11.4782609 C6.66608507,11.4782609 6.55267341,11.5956522 6.55267341,11.7391304 L6.55267341,12 L9.07293242,12 L9.07293242,11.7391304 C9.07293242,11.5956522 8.95952076,11.4782609 8.82090652,11.4782609 L8.56888062,11.4782609 Z M5.54456981,9.91304348 L1.0081036,9.91304348 C0.730875111,9.91304348 0.504051801,10.1478261 0.504051801,10.4347826 C0.504051801,10.7217391 0.730875111,10.9565217 1.0081036,10.9565217 L1.0081036,12 L2.0162072,12 L2.0162072,10.9565217 L4.53646621,10.9565217 L4.53646621,12 L5.54456981,12 L5.54456981,10.9565217 C5.8217983,10.9565217 6.04862161,10.7217391 6.04862161,10.4347826 C6.04862161,10.1478261 5.8217983,9.91304348 5.54456981,9.91304348 Z M13,7.56521739 C13,7.09565217 12.7343647,6.69913043 12.3533015,6.50556522 C12.0780893,6.90886957 11.6814005,7.21721739 11.2151526,7.36382609 C11.0664573,8.30556522 10.2756,9.02608696 9.32495832,9.02608696 C9.29118685,9.02608696 9.25741538,9.02504348 9.22414796,9.02347826 L9.22414796,9.71843478 C9.3335272,9.76852174 9.44996317,9.80452174 9.57698422,9.80452174 C9.76348339,9.80452174 9.93738126,9.74608696 10.081036,9.6453913 L10.081036,11.4782609 C9.94242178,11.4782609 9.82901012,11.5956522 9.82901012,11.7391304 L9.82901012,12 L11.3411655,12 L11.3411655,11.7391304 C11.3411655,11.5956522 11.2277539,11.4782609 11.0891396,11.4782609 L11.0891396,9.64486957 C11.2327944,9.74504348 11.4066923,9.804 11.5931914,9.804 C12.0916987,9.804 12.4959482,9.38556522 12.4959482,8.86956522 C12.4959482,8.76834783 12.4762902,8.67234783 12.4475592,8.58052174 C12.7782172,8.37026087 13,7.99617391 13,7.56521739 Z"/>
</svg>
