<svg xmlns="http://www.w3.org/2000/svg" width="12" height="13" viewBox="0 0 12 13">
  <path fill="#000000" d="M10.226087,2.5 L10.226087,2 C10.226087,1.0075 9.38347826,0.1995 8.34782609,0.1995 L6.7826087,0.1995 C6.28121739,0.1995 5.82730435,0.3915 5.49026087,0.6995 L4.69565217,0.6995 C3.66,0.6995 2.8173913,1.507 2.8173913,2.5 L2.08695652,2.5 L-1.77635684e-15,4.5 L-1.77635684e-15,13 L9.91304348,13 L12,11 L12,2.5 L10.226087,2.5 Z M9.6,2 L9.6,2.5 L8.13913043,2.5 C8.13913043,1.707 7.59756522,1.0395 6.85356522,0.8005 L8.34782609,0.8005 C9.0386087,0.8005 9.6,1.3385 9.6,2 Z M3.44347826,4.5 L3.44347826,3.5 L7.51304348,3.5 L7.51304348,4.5 L3.44347826,4.5 Z M5.53043478,2.5 L5.53043478,2 C5.53043478,1.7385 5.62069565,1.4975 5.76991304,1.3005 L6.26086957,1.3005 C6.95165217,1.3005 7.51304348,1.8385 7.51304348,2.5 L5.53043478,2.5 Z M4.69565217,1.3005 L5.05252174,1.3005 C4.95704348,1.5155 4.90434783,1.752 4.90434783,2 L4.90434783,2.5 L3.44347826,2.5 C3.44347826,1.8385 4.00486957,1.3005 4.69565217,1.3005 Z M1.56521739,4.4995 L2.60869565,3.5 L2.8173913,3.5 L2.8173913,4.5 L1.56521739,4.4995 Z M9.65217391,4.5 L8.13913043,4.5 L8.13913043,3.5 L10.6956522,3.5 L9.65217391,4.5 Z"/>
</svg>
