<svg xmlns="http://www.w3.org/2000/svg" width="14" height="11" viewBox="0 0 14 11">
  <path fill="#000000" d="M14,6 L14,5.5 C14,5.5 14,5.5 13.5,5.5 C13,5.5 11.0545,4.3125 11,4 L11,3.5 L13,3.5 L13,3 C13,3 13,3 12.5,3 C12,3 10.0545,2 10,2 L10,1.5 L11,1.5 L11,1 C11,1 11,1 10.5,1 C10,1 8.5545,0 8.5,0 C8.4045,0 5.5955,0 5.5,0 C5.4455,0 4,1 3.5,1 C3,1 3,1 3,1 L3,1.5 L4,1.5 L4,2 C3.9455,2 2,3 1.5,3 C1,3 1,3 1,3 L1,3.5 L3,3.5 L3,4 C2.9455,4.3125 1,5.5 0.5,5.5 C0,5.5 0,5.5 0,5.5 L0,6 L2.5,6 L2.5,8.5 L1,8.5 L1,11 L13,11 L13,8.5 L11.5,8.5 L11.5,6 L14,6 Z M5,7.5 L4,7.5 L4,6 L5,6 L5,7.5 Z M7.5,7.5 L6.5,7.5 L6.5,6 L7.5,6 L7.5,7.5 Z M10,7.5 L9,7.5 L9,6 L10,6 L10,7.5 Z"/>
</svg>
