<svg xmlns="http://www.w3.org/2000/svg" width="12" height="10" viewBox="0 0 12 10">
  <path fill="#000000" d="M11,2 L9.5,2 C9.5,2 9,0 7,0 C5.5,0 5,0 5,0 C3,0 2.5,2 2.5,2 L1,2 C0.45,2 0,2.45 0,3 L0,9 C0,9.55 0.45,10 1,10 L11,10 C11.55,10 12,9.55 12,9 L12,3 C12,2.45 11.55,2 11,2 Z M6,8.297 C4.734,8.297 3.703,7.266 3.703,6 C3.703,4.734 4.734,3.703 6,3.703 C7.266,3.703 8.297,4.734 8.297,6 C8.297,7.266 7.266,8.297 6,8.297 Z M10,4 L9,4 L9,3 L10,3 L10,4 Z M6.729,5.271 C7.131631,5.673631 7.131631,6.32642 6.729,6.72905 C6.326369,7.131681 5.67358,7.131681 5.27095,6.72905 C4.868319,6.326419 4.868319,5.67363 5.27095,5.271 C5.673581,4.868369 6.32637,4.868369 6.729,5.271 Z"/>
</svg>
