<svg xmlns="http://www.w3.org/2000/svg" width="10" height="13" viewBox="0 0 10 13">
  <path fill="#000000" d="M3.328,10.5 L2,13 L0,13 L2.2325,10.5 L3.328,10.5 Z M6.6365,10.5 L8,13 L10,13 L7.734,10.5 L6.6365,10.5 Z M10,6 C10,7 10,6.5 10,7.5 C10,8.5 9.5,10 8,10 C7.5,10 2.5,10 2,10 C0.5,10 0,9 0,7.5 C0,6 0,7 0,6 C0,5 0.848,0.9835 0.848,0.9835 C0.9315,0.4395 1.45,0 2.0005,0 L7.999,0 C8.5495,0 9.068,0.4395 9.152,0.9835 C9.152,0.9835 10,5 10,6 Z M3,7.5 L1,6.5 L1,8 L3,8.5 L3,7.5 Z M9,6.5 L7,7.5 L7,8.5 L9,8 L9,6.5 Z M9,5.5 L8.25,1.141 C8.241,1.0845 8.143,1 8.0855,1 L1.9375,1 C1.88,1 1.7815,1.0845 1.773,1.1405 L1,5.5 C1,5.5 3,6.656 5,6.656 C7,6.656 9,5.5 9,5.5 Z"/>
</svg>
